3D InterOp IGES (v. 2021 1.0.1), Spatial Corp. Copyright (c) 1999-2020. S      1
1H,,1H;,6HNoname,7Hbox.igs,13HSpatial Corp.,20H3D InterOp ACIS/IGES,32, G      1
38, 6,308,15,6HNoname,1.000,2,2HMM,1,1.000,15H20240428.093643,1.0e-06,  G      2
0.00,6HNoname,6HNoname,11,0,15H20240428.093643;                         G      3
     314       1       0       0       0       0       0       000010001D      1
     314       0       0       2       0       0       0               0D      2
     110       3       0       0       0       0       0       000010001D      3
     110       0       0       1       0       0       0               0D      4
     122       4       0       0       0       0       0       000010001D      5
     122       0       0       1       0       0       0               0D      6
     110       5       0       0       0       0       0       000010001D      7
     110       0       0       1       0       0       0               0D      8
     502       6       0       0       0       0       0       000010001D      9
     502       0       0       4       1       0       0               0D     10
     110      10       0       0       0       0       0       000010001D     11
     110       0       0       2       0       0       0               0D     12
     110      12       0       0       0       0       0       000010001D     13
     110       0       0       1       0       0       0               0D     14
     110      13       0       0       0       0       0       000010001D     15
     110       0       0       2       0       0       0               0D     16
     110      15       0       0       0       0       0       000010001D     17
     110       0       0       1       0       0       0               0D     18
     110      16       0       0       0       0       0       000010001D     19
     110       0       0       1       0       0       0               0D     20
     110      17       0       0       0       0       0       000010001D     21
     110       0       0       1       0       0       0               0D     22
     110      18       0       0       0       0       0       000010001D     23
     110       0       0       1       0       0       0               0D     24
     110      19       0       0       0       0       0       000010001D     25
     110       0       0       1       0       0       0               0D     26
     110      20       0       0       0       0       0       000010001D     27
     110       0       0       1       0       0       0               0D     28
     110      21       0       0       0       0       0       000010001D     29
     110       0       0       2       0       0       0               0D     30
     110      23       0       0       0       0       0       000010001D     31
     110       0       0       2       0       0       0               0D     32
     504      25       0       0       0       0       0       000010001D     33
     504       0       0       3       1       0       0               0D     34
     508      28       0       0       0       0       0       000010001D     35
     508       0       0       1       1       0       0               0D     36
     510      29       0       0       0       0       0       000010001D     37
     510       0       0       1       1       0       0               0D     38
     110      30       0       0       0       0       0       000010001D     39
     110       0       0       2       0       0       0               0D     40
     122      32       0       0       0       0       0       000010001D     41
     122       0       0       1       0       0       0               0D     42
     508      33       0       0       0       0       0       000010001D     43
     508       0       0       1       1       0       0               0D     44
     510      34       0       0       0       0       0       000010001D     45
     510       0       0       1       1       0       0               0D     46
     110      35       0       0       0       0       0       000010001D     47
     110       0       0       1       0       0       0               0D     48
     122      36       0       0       0       0       0       000010001D     49
     122       0       0       1       0       0       0               0D     50
     508      37       0       0       0       0       0       000010001D     51
     508       0       0       1       1       0       0               0D     52
     510      38       0       0       0       0       0       000010001D     53
     510       0       0       1       1       0       0               0D     54
     110      39       0       0       0       0       0       000010001D     55
     110       0       0       1       0       0       0               0D     56
     122      40       0       0       0       0       0       000010001D     57
     122       0       0       1       0       0       0               0D     58
     508      41       0       0       0       0       0       000010001D     59
     508       0       0       1       1       0       0               0D     60
     510      42       0       0       0       0       0       000010001D     61
     510       0       0       1       1       0       0               0D     62
     110      43       0       0       0       0       0       000010001D     63
     110       0       0       2       0       0       0               0D     64
     122      45       0       0       0       0       0       000010001D     65
     122       0       0       1       0       0       0               0D     66
     508      46       0       0       0       0       0       000010001D     67
     508       0       0       1       1       0       0               0D     68
     510      47       0       0       0       0       0       000010001D     69
     510       0       0       1       1       0       0               0D     70
     110      48       0       0       0       0       0       000010001D     71
     110       0       0       1       0       0       0               0D     72
     122      49       0       0       0       0       0       000010001D     73
     122       0       0       1       0       0       0               0D     74
     508      50       0       0       0       0       0       000010001D     75
     508       0       0       1       1       0       0               0D     76
     510      51       0       0       0       0       0       000010001D     77
     510       0       0       1       1       0       0               0D     78
     514      52       0       0       0       0       0       000010001D     79
     514       0       0       1       1       0       0               0D     80
     186      53       0       0       0       0       0       000000001D     81
     186       0      -1       1       0       0       0             0D     82
     314      54       0       0       0       0       0       000010001D     83
     314       0       0       2       0       0       0               0D     84
     110      56       0       0       0       0       0       000010001D     85
     110       0       0       1       0       0       0               0D     86
     122      57       0       0       0       0       0       000010001D     87
     122       0       0       1       0       0       0               0D     88
     110      58       0       0       0       0       0       000010001D     89
     110       0       0       1       0       0       0               0D     90
     502      59       0       0       0       0       0       000010001D     91
     502       0       0       5       1       0       0               0D     92
     110      64       0       0       0       0       0       000010001D     93
     110       0       0       1       0       0       0               0D     94
     110      65       0       0       0       0       0       000010001D     95
     110       0       0       2       0       0       0               0D     96
     110      67       0       0       0       0       0       000010001D     97
     110       0       0       2       0       0       0               0D     98
     110      69       0       0       0       0       0       000010001D     99
     110       0       0       1       0       0       0               0D    100
     110      70       0       0       0       0       0       000010001D    101
     110       0       0       2       0       0       0               0D    102
     110      72       0       0       0       0       0       000010001D    103
     110       0       0       2       0       0       0               0D    104
     110      74       0       0       0       0       0       000010001D    105
     110       0       0       2       0       0       0               0D    106
     110      76       0       0       0       0       0       000010001D    107
     110       0       0       2       0       0       0               0D    108
     110      78       0       0       0       0       0       000010001D    109
     110       0       0       2       0       0       0               0D    110
     110      80       0       0       0       0       0       000010001D    111
     110       0       0       1       0       0       0               0D    112
     110      81       0       0       0       0       0       000010001D    113
     110       0       0       2       0       0       0               0D    114
     504      83       0       0       0       0       0       000010001D    115
     504       0       0       3       1       0       0               0D    116
     508      86       0       0       0       0       0       000010001D    117
     508       0       0       1       1       0       0               0D    118
     510      87       0       0       0       0       0       000010001D    119
     510       0       0       1       1       0       0               0D    120
     110      88       0       0       0       0       0       000010001D    121
     110       0       0       1       0       0       0               0D    122
     122      89       0       0       0       0       0       000010001D    123
     122       0       0       1       0       0       0               0D    124
     508      90       0       0       0       0       0       000010001D    125
     508       0       0       1       1       0       0               0D    126
     510      91       0       0       0       0       0       000010001D    127
     510       0       0       1       1       0       0               0D    128
     110      92       0       0       0       0       0       000010001D    129
     110       0       0       1       0       0       0               0D    130
     122      93       0       0       0       0       0       000010001D    131
     122       0       0       1       0       0       0               0D    132
     508      94       0       0       0       0       0       000010001D    133
     508       0       0       1       1       0       0               0D    134
     510      95       0       0       0       0       0       000010001D    135
     510       0       0       1       1       0       0               0D    136
     110      96       0       0       0       0       0       000010001D    137
     110       0       0       1       0       0       0               0D    138
     122      97       0       0       0       0       0       000010001D    139
     122       0       0       1       0       0       0               0D    140
     508      98       0       0       0       0       0       000010001D    141
     508       0       0       1       1       0       0               0D    142
     510      99       0       0       0       0       0       000010001D    143
     510       0       0       1       1       0       0               0D    144
     110     100       0       0       0       0       0       000010001D    145
     110       0       0       2       0       0       0               0D    146
     122     102       0       0       0       0       0       000010001D    147
     122       0       0       1       0       0       0               0D    148
     508     103       0       0       0       0       0       000010001D    149
     508       0       0       1       1       0       0               0D    150
     510     104       0       0       0       0       0       000010001D    151
     510       0       0       1       1       0       0               0D    152
     110     105       0       0       0       0       0       000010001D    153
     110       0       0       1       0       0       0               0D    154
     122     106       0       0       0       0       0       000010001D    155
     122       0       0       1       0       0       0               0D    156
     508     107       0       0       0       0       0       000010001D    157
     508       0       0       1       1       0       0               0D    158
     510     108       0       0       0       0       0       000010001D    159
     510       0       0       1       1       0       0               0D    160
     514     109       0       0       0       0       0       000010001D    161
     514       0       0       1       1       0       0               0D    162
     186     110       0       0       0       0       0       000000001D    163
     186       0     -83       1       0       0       0             0D    164
314,56.07843137254902,68.62745098039215,56.07843137254902,10HMix       1P      1
edColor;                                                               1P      2
110,-45.,-15.,9.99999999999999,45.,-15.,10.00000000000001;             3P      3
122,3,-45.,15.,9.99999999999999;                                       5P      4
110,-45.,15.,9.99999999999999,-45.,15.,-0.00000000000001;              7P      5
502,8,45.,-15.,0.00000000000001,-45.,-15.,-0.00000000000001,45.,       9P      6
15.,0.00000000000001,-45.,15.,9.99999999999999,45.,-15.,               9P      7
10.00000000000001,-45.,-15.,9.99999999999999,-45.,15.,                 9P      8
-0.00000000000001,45.,15.,10.00000000000001;                           9P      9
110,45.,15.,10.00000000000001,-45.00000000000001,15.,                 11P     10
9.99999999999999;                                                     11P     11
110,-45.,-15.,-0.00000000000001,-45.,15.,-0.00000000000001;           13P     12
110,-45.00000000000001,-15.,9.99999999999999,45.,-15.,                15P     13
10.00000000000001;                                                    15P     14
110,-45.,-15.,-0.00000000000001,-45.,-15.,9.99999999999999;           17P     15
110,45.,-15.,0.00000000000001,45.,15.,0.00000000000001;               19P     16
110,45.,-15.,0.00000000000001,45.,-15.,10.00000000000001;             21P     17
110,-45.,-15.,9.99999999999999,-45.,15.,9.99999999999999;             23P     18
110,45.,15.,0.00000000000001,45.,15.,10.00000000000001;               25P     19
110,45.,-15.,10.00000000000001,45.,15.,10.00000000000001;             27P     20
110,-45.00000000000001,-15.,-0.00000000000001,45.,-15.,               29P     21
0.00000000000001;                                                     29P     22
110,-45.00000000000001,15.,-0.00000000000001,45.,15.,                 31P     23
0.00000000000001;                                                     31P     24
504,12,7,9,4,9,7,11,9,8,9,4,13,9,2,9,7,15,9,6,9,5,17,9,2,9,6,19,      33P     25
9,1,9,3,21,9,1,9,5,23,9,6,9,4,25,9,3,9,8,27,9,5,9,8,29,9,2,9,1,       33P     26
31,9,7,9,3;                                                           33P     27
508,4,0,33,2,1,0,0,33,8,0,0,0,33,4,1,0,0,33,10,1,0;                   35P     28
510,5,1,1,35;                                                         37P     29
110,-45.00000000000001,-15.,-0.00000000000001,                        39P     30
-45.00000000000001,-15.,10.00000000000001;                            39P     31
122,39,45.,-15.,-0.00000000000001;                                    41P     32
508,4,0,33,7,1,0,0,33,4,0,0,0,33,5,0,0,0,33,11,1,0;                   43P     33
510,41,1,1,43;                                                        45P     34
110,45.,-15.,0.00000000000001,-45.,-15.,-0.00000000000001;            47P     35
122,47,45.,15.,0.00000000000001;                                      49P     36
508,4,0,33,12,1,0,0,33,6,0,0,0,33,11,0,0,0,33,3,1,0;                  51P     37
510,49,1,1,51;                                                        53P     38
110,-45.,-15.,-0.00000000000001,-45.,-15.,9.99999999999999;           55P     39
122,55,-45.,15.,-0.00000000000001;                                    57P     40
508,4,0,33,1,1,0,0,33,3,0,0,0,33,5,1,0,0,33,8,1,0;                    59P     41
510,57,1,1,59;                                                        61P     42
110,-45.00000000000001,15.,-0.00000000000001,-45.00000000000001,      63P     43
15.,10.00000000000001;                                                63P     44
122,63,45.,15.,-0.00000000000001;                                     65P     45
508,4,0,33,2,0,0,0,33,9,0,0,0,33,12,0,0,0,33,1,0,0;                   67P     46
510,65,1,1,67;                                                        69P     47
110,45.,-15.,10.00000000000001,45.,-15.,0.00000000000001;             71P     48
122,71,45.,15.,10.00000000000001;                                     73P     49
508,4,0,33,9,1,0,0,33,10,0,0,0,33,7,0,0,0,33,6,1,0;                   75P     50
510,73,1,1,75;                                                        77P     51
514,6,37,1,45,0,53,1,61,1,69,1,77,1;                                  79P     52
186,79,1,0;                                                           81P     53
314,56.07843137254902,68.62745098039215,56.07843137254902,10HMix      83P     54
edColor;                                                              83P     55
110,-45.,-15.,9.99999999999999,45.,-15.,10.00000000000001;            85P     56
122,85,-45.00000000000001,-15.,29.99999999999999;                     87P     57
110,45.,-15.,10.00000000000001,-45.,-15.,9.99999999999999;            89P     58
502,8,-45.00000000000001,-15.,29.99999999999999,                      91P     59
44.99999999999999,-15.,30.00000000000001,-45.,-15.,                   91P     60
9.99999999999999,45.,-15.,10.00000000000001,-45.00000000000001,       91P     61
15.,29.99999999999999,44.99999999999999,15.,30.00000000000001,        91P     62
-45.,15.,9.99999999999999,45.,15.,10.00000000000001;                  91P     63
110,-45.,15.,9.99999999999999,45.,15.,10.00000000000001;              93P     64
110,45.,-15.,10.00000000000001,44.99999999999999,-15.,                95P     65
30.00000000000001;                                                    95P     66
110,44.99999999999999,15.,30.00000000000001,44.99999999999999,        97P     67
-15.,30.00000000000001;                                               97P     68
110,-45.,-15.,9.99999999999999,-45.,15.,9.99999999999999;             99P     69
110,44.99999999999999,-15.,30.00000000000001,-45.00000000000001,     101P     70
-15.,29.99999999999999;                                              101P     71
110,-45.00000000000001,-15.,29.99999999999999,                       103P     72
-45.00000000000001,15.,29.99999999999999;                            103P     73
110,-45.00000000000001,15.,29.99999999999999,44.99999999999999,      105P     74
15.,30.00000000000001;                                               105P     75
110,-45.,15.,9.99999999999999,-45.00000000000001,15.,                107P     76
29.99999999999999;                                                   107P     77
110,45.,15.,10.00000000000001,44.99999999999999,15.,                 109P     78
30.00000000000001;                                                   109P     79
110,45.,15.,10.00000000000001,45.,-15.,10.00000000000001;            111P     80
110,-45.,-15.,9.99999999999999,-45.00000000000001,-15.,              113P     81
29.99999999999999;                                                   113P     82
504,12,89,91,4,91,3,93,91,7,91,8,95,91,4,91,2,97,91,6,91,2,99,       115P     83
91,3,91,7,101,91,2,91,1,103,91,1,91,5,105,91,5,91,6,107,91,7,91,     115P     84
5,109,91,8,91,6,111,91,8,91,4,113,91,3,91,1;                         115P     85
508,4,0,115,6,1,0,0,115,12,0,0,0,115,1,0,0,0,115,3,1,0;              117P     86
510,87,1,1,117;                                                      119P     87
110,-45.,15.,9.99999999999999,-45.,-15.,9.99999999999999;            121P     88
122,121,-45.00000000000001,15.,29.99999999999999;                    123P     89
508,4,0,115,7,1,0,0,115,9,0,0,0,115,5,0,0,0,115,12,1,0;              125P     90
510,123,1,1,125;                                                     127P     91
110,45.,15.,10.00000000000001,-45.,15.,9.99999999999999;             129P     92
122,129,44.99999999999999,15.,30.00000000000001;                     131P     93
508,4,0,115,8,1,0,0,115,10,0,0,0,115,2,0,0,0,115,9,1,0;              133P     94
510,131,1,1,133;                                                     135P     95
110,45.,-15.,10.00000000000001,45.,15.,10.00000000000001;            137P     96
122,137,44.99999999999999,-15.,30.00000000000001;                    139P     97
508,4,0,115,4,1,0,0,115,3,0,0,0,115,11,0,0,0,115,10,1,0;             141P     98
510,139,1,1,141;                                                     143P     99
110,-45.00000000000001,-15.,29.99999999999999,44.99999999999999,     145P    100
-15.,30.00000000000001;                                              145P    101
122,145,-45.00000000000001,15.,29.99999999999999;                    147P    102
508,4,0,115,6,0,0,0,115,4,0,0,0,115,8,0,0,0,115,7,0,0;               149P    103
510,147,1,1,149;                                                     151P    104
110,-45.,-15.,9.99999999999999,45.,-15.,10.00000000000001;           153P    105
122,153,-45.,15.,9.99999999999999;                                   155P    106
508,4,0,115,11,1,0,0,115,1,1,0,0,115,5,1,0,0,115,2,1,0;              157P    107
510,155,1,1,157;                                                     159P    108
514,6,119,1,127,1,135,1,143,1,151,1,159,0;                           161P    109
186,161,1,0;                                                         163P    110
S      1G      3D    164P    110                                        T      1
